<svg width="107" height="28" viewBox="0 0 107 28" fill="none" xmlns="http://www.w3.org/2000/svg">
<path d="M32.504 21.48C31.896 21.48 31.32 21.408 30.776 21.264C30.248 21.12 29.76 20.928 29.312 20.688C28.88 20.432 28.496 20.152 28.16 19.848C27.824 19.544 27.56 19.24 27.368 18.936C27.192 18.68 27.08 18.472 27.032 18.312C26.984 18.136 26.992 17.968 27.056 17.808C27.136 17.648 27.288 17.472 27.512 17.28C27.768 17.088 27.992 17 28.184 17.016C28.376 17.016 28.552 17.088 28.712 17.232C28.888 17.376 29.064 17.568 29.24 17.808C29.64 18.352 30.128 18.752 30.704 19.008C31.28 19.248 31.848 19.368 32.408 19.368C33.128 19.368 33.768 19.272 34.328 19.08C34.888 18.888 35.328 18.6 35.648 18.216C35.984 17.816 36.152 17.304 36.152 16.68C36.152 16.168 36.024 15.736 35.768 15.384C35.512 15.032 35.168 14.736 34.736 14.496C34.304 14.24 33.824 14.024 33.296 13.848C32.768 13.656 32.232 13.472 31.688 13.296C31.256 13.152 30.832 12.992 30.416 12.816C30 12.624 29.608 12.416 29.24 12.192C28.872 11.952 28.544 11.672 28.256 11.352C27.984 11.032 27.768 10.656 27.608 10.224C27.464 9.792 27.392 9.288 27.392 8.712C27.392 7.832 27.6 7.056 28.016 6.384C28.448 5.712 29.048 5.192 29.816 4.824C30.584 4.44 31.472 4.248 32.48 4.248C33.072 4.248 33.616 4.304 34.112 4.416C34.608 4.528 35.048 4.68 35.432 4.872C35.816 5.048 36.144 5.24 36.416 5.448C36.688 5.64 36.896 5.824 37.04 6C37.328 6.304 37.488 6.56 37.52 6.768C37.552 6.976 37.432 7.232 37.16 7.536C36.904 7.824 36.656 7.976 36.416 7.992C36.176 8.008 35.912 7.896 35.624 7.656C35.32 7.304 35 7.032 34.664 6.84C34.344 6.648 34 6.52 33.632 6.456C33.28 6.376 32.888 6.336 32.456 6.336C32.04 6.336 31.648 6.392 31.28 6.504C30.928 6.6 30.616 6.752 30.344 6.96C30.088 7.168 29.888 7.424 29.744 7.728C29.6 8.016 29.528 8.352 29.528 8.736C29.528 9.168 29.64 9.536 29.864 9.84C30.104 10.144 30.416 10.408 30.8 10.632C31.184 10.84 31.616 11.032 32.096 11.208C32.576 11.368 33.08 11.528 33.608 11.688C34.184 11.864 34.752 12.08 35.312 12.336C35.872 12.576 36.376 12.88 36.824 13.248C37.272 13.6 37.632 14.048 37.904 14.592C38.176 15.136 38.312 15.808 38.312 16.608C38.312 17.408 38.152 18.112 37.832 18.72C37.528 19.328 37.104 19.84 36.56 20.256C36.016 20.656 35.392 20.96 34.688 21.168C34 21.376 33.272 21.48 32.504 21.48ZM45.8043 21.24C45.0523 21.24 44.4123 21.168 43.8843 21.024C43.3723 20.88 42.9483 20.656 42.6123 20.352C42.2763 20.048 42.0363 19.656 41.8923 19.176C41.7483 18.68 41.6763 18.072 41.6763 17.352V6.744C41.6763 6.52 41.7003 6.328 41.7483 6.168C41.7963 6.008 41.8923 5.888 42.0363 5.808C42.1803 5.712 42.4043 5.664 42.7083 5.664C43.0123 5.664 43.2443 5.712 43.4043 5.808C43.5643 5.888 43.6683 6.008 43.7163 6.168C43.7643 6.312 43.7883 6.496 43.7883 6.72V17.352C43.7883 17.768 43.8203 18.104 43.8843 18.36C43.9643 18.6 44.0763 18.784 44.2203 18.912C44.3803 19.04 44.5883 19.12 44.8443 19.152C45.1003 19.184 45.4123 19.2 45.7803 19.2C46.0363 19.2 46.2443 19.224 46.4043 19.272C46.5643 19.32 46.6843 19.416 46.7643 19.56C46.8443 19.704 46.8843 19.92 46.8843 20.208C46.8843 20.512 46.8363 20.744 46.7403 20.904C46.6603 21.048 46.5323 21.136 46.3563 21.168C46.1963 21.216 46.0123 21.24 45.8043 21.24ZM40.4283 9.888L42.7323 9.912L46.0683 9.864C46.2923 9.864 46.4843 9.888 46.6443 9.936C46.8043 9.968 46.9243 10.064 47.0043 10.224C47.1003 10.368 47.1483 10.592 47.1483 10.896C47.1483 11.2 47.1083 11.432 47.0283 11.592C46.9483 11.736 46.8283 11.832 46.6683 11.88C46.5083 11.928 46.3163 11.952 46.0923 11.952L42.8043 11.904L40.3803 11.928C40.0443 11.928 39.8123 11.848 39.6843 11.688C39.5723 11.528 39.5163 11.264 39.5163 10.896C39.5163 10.544 39.5883 10.288 39.7323 10.128C39.8763 9.968 40.1083 9.888 40.4283 9.888ZM59.2438 21.216C58.8918 21.216 58.6358 21.144 58.4758 21C58.3318 20.856 58.2438 20.632 58.2118 20.328L58.3078 19.128C58.1478 19.384 57.8998 19.68 57.5638 20.016C57.2278 20.336 56.7878 20.624 56.2438 20.88C55.6998 21.12 55.0358 21.24 54.2518 21.24C53.4838 21.24 52.7638 21.088 52.0918 20.784C51.4358 20.48 50.8518 20.056 50.3398 19.512C49.8438 18.968 49.4518 18.344 49.1638 17.64C48.8918 16.936 48.7558 16.184 48.7558 15.384C48.7558 14.6 48.8918 13.864 49.1638 13.176C49.4518 12.472 49.8518 11.856 50.3638 11.328C50.8758 10.8 51.4598 10.384 52.1158 10.08C52.7878 9.776 53.4998 9.624 54.2518 9.624C54.9558 9.624 55.5558 9.72 56.0518 9.912C56.5478 10.088 56.9718 10.328 57.3238 10.632C57.6918 10.92 58.0118 11.248 58.2838 11.616L58.2358 10.608C58.2198 10.256 58.2918 10.008 58.4518 9.864C58.6278 9.704 58.8998 9.624 59.2678 9.624C59.5718 9.624 59.7878 9.672 59.9158 9.768C60.0598 9.864 60.1558 10 60.2038 10.176C60.2518 10.352 60.2758 10.568 60.2758 10.824V20.088C60.2758 20.312 60.2518 20.512 60.2038 20.688C60.1558 20.864 60.0598 20.992 59.9158 21.072C59.7718 21.168 59.5478 21.216 59.2438 21.216ZM54.6118 19.224C55.2518 19.224 55.8358 19.056 56.3638 18.72C56.9078 18.384 57.3318 17.936 57.6358 17.376C57.9558 16.8 58.1158 16.144 58.1158 15.408C58.1158 14.656 57.9478 14 57.6118 13.44C57.2918 12.864 56.8598 12.416 56.3158 12.096C55.7878 11.76 55.2038 11.592 54.5638 11.592C53.8118 11.592 53.1558 11.768 52.5958 12.12C52.0518 12.456 51.6198 12.912 51.2998 13.488C50.9798 14.064 50.8198 14.72 50.8198 15.456C50.8198 16.176 50.9798 16.824 51.2998 17.4C51.6198 17.96 52.0598 18.408 52.6198 18.744C53.1958 19.064 53.8598 19.224 54.6118 19.224ZM69.017 21.144C68.233 21.144 67.521 21 66.881 20.712C66.241 20.424 65.697 20.024 65.249 19.512C64.801 18.984 64.449 18.368 64.193 17.664C63.953 16.96 63.841 16.184 63.857 15.336C63.857 14.504 63.977 13.736 64.217 13.032C64.457 12.328 64.801 11.72 65.249 11.208C65.713 10.68 66.257 10.28 66.881 10.008C67.521 9.72 68.233 9.576 69.017 9.576C69.753 9.576 70.441 9.72 71.081 10.008C71.737 10.296 72.305 10.704 72.785 11.232C73.281 11.744 73.665 12.36 73.937 13.08C74.225 13.8 74.369 14.576 74.369 15.408C74.369 16.24 74.225 17.008 73.937 17.712C73.665 18.416 73.281 19.024 72.785 19.536C72.305 20.048 71.737 20.448 71.081 20.736C70.441 21.008 69.753 21.144 69.017 21.144ZM64.025 25.968C63.721 25.968 63.489 25.92 63.329 25.824C63.185 25.744 63.081 25.624 63.017 25.464C62.969 25.304 62.945 25.112 62.945 24.888V10.704C62.945 10.48 62.969 10.288 63.017 10.128C63.065 9.968 63.161 9.848 63.305 9.768C63.465 9.672 63.697 9.624 64.001 9.624C64.353 9.624 64.609 9.68 64.769 9.792C64.945 9.904 65.049 10.104 65.081 10.392V24.864C65.097 25.088 65.081 25.28 65.033 25.44C64.985 25.616 64.881 25.744 64.721 25.824C64.577 25.92 64.345 25.968 64.025 25.968ZM68.705 19.176C69.377 19.176 69.985 19.016 70.529 18.696C71.073 18.36 71.497 17.904 71.801 17.328C72.121 16.752 72.281 16.096 72.281 15.36C72.281 14.608 72.121 13.952 71.801 13.392C71.497 12.832 71.073 12.4 70.529 12.096C70.001 11.776 69.393 11.616 68.705 11.616C68.033 11.616 67.425 11.776 66.881 12.096C66.353 12.416 65.929 12.856 65.609 13.416C65.305 13.976 65.153 14.624 65.153 15.36C65.153 16.096 65.305 16.752 65.609 17.328C65.929 17.904 66.353 18.36 66.881 18.696C67.425 19.016 68.033 19.176 68.705 19.176ZM82.7983 21.144C82.0143 21.144 81.3023 21 80.6623 20.712C80.0223 20.424 79.4783 20.024 79.0303 19.512C78.5823 18.984 78.2303 18.368 77.9743 17.664C77.7343 16.96 77.6223 16.184 77.6383 15.336C77.6383 14.504 77.7583 13.736 77.9983 13.032C78.2383 12.328 78.5823 11.72 79.0303 11.208C79.4943 10.68 80.0383 10.28 80.6623 10.008C81.3023 9.72 82.0143 9.576 82.7983 9.576C83.5343 9.576 84.2223 9.72 84.8623 10.008C85.5183 10.296 86.0863 10.704 86.5663 11.232C87.0623 11.744 87.4463 12.36 87.7183 13.08C88.0063 13.8 88.1503 14.576 88.1503 15.408C88.1503 16.24 88.0063 17.008 87.7183 17.712C87.4463 18.416 87.0623 19.024 86.5663 19.536C86.0863 20.048 85.5183 20.448 84.8623 20.736C84.2223 21.008 83.5343 21.144 82.7983 21.144ZM77.8063 25.968C77.5023 25.968 77.2703 25.92 77.1103 25.824C76.9663 25.744 76.8623 25.624 76.7983 25.464C76.7503 25.304 76.7263 25.112 76.7263 24.888V10.704C76.7263 10.48 76.7503 10.288 76.7983 10.128C76.8463 9.968 76.9423 9.848 77.0863 9.768C77.2463 9.672 77.4783 9.624 77.7823 9.624C78.1343 9.624 78.3903 9.68 78.5503 9.792C78.7263 9.904 78.8303 10.104 78.8623 10.392V24.864C78.8783 25.088 78.8623 25.28 78.8143 25.44C78.7663 25.616 78.6623 25.744 78.5023 25.824C78.3583 25.92 78.1263 25.968 77.8063 25.968ZM82.4863 19.176C83.1583 19.176 83.7663 19.016 84.3103 18.696C84.8543 18.36 85.2783 17.904 85.5823 17.328C85.9023 16.752 86.0623 16.096 86.0623 15.36C86.0623 14.608 85.9023 13.952 85.5823 13.392C85.2783 12.832 84.8543 12.4 84.3103 12.096C83.7823 11.776 83.1743 11.616 82.4863 11.616C81.8143 11.616 81.2063 11.776 80.6623 12.096C80.1343 12.416 79.7103 12.856 79.3903 13.416C79.0863 13.976 78.9342 14.624 78.9342 15.36C78.9342 16.096 79.0863 16.752 79.3903 17.328C79.7103 17.904 80.1343 18.36 80.6623 18.696C81.2063 19.016 81.8143 19.176 82.4863 19.176ZM94.3475 21.24C93.8355 21.24 93.3715 21.192 92.9555 21.096C92.5555 21.016 92.2035 20.88 91.8995 20.688C91.5955 20.496 91.3395 20.248 91.1315 19.944C90.9395 19.64 90.7955 19.272 90.6995 18.84C90.6195 18.408 90.5795 17.904 90.5795 17.328V5.328C90.5795 5.088 90.5955 4.888 90.6275 4.728C90.6755 4.568 90.7795 4.448 90.9395 4.368C91.0995 4.272 91.3235 4.224 91.6115 4.224C91.9315 4.224 92.1635 4.264 92.3075 4.344C92.4675 4.424 92.5715 4.544 92.6195 4.704C92.6675 4.864 92.6915 5.056 92.6915 5.28V17.304C92.6915 17.624 92.7235 17.904 92.7875 18.144C92.8515 18.368 92.9475 18.56 93.0755 18.72C93.2195 18.88 93.3955 18.992 93.6035 19.056C93.8115 19.12 94.0595 19.152 94.3475 19.152C94.5395 19.152 94.6995 19.176 94.8275 19.224C94.9715 19.272 95.0835 19.368 95.1635 19.512C95.2435 19.656 95.2835 19.88 95.2835 20.184C95.2835 20.504 95.2435 20.744 95.1635 20.904C95.0835 21.048 94.9715 21.136 94.8275 21.168C94.6995 21.216 94.5395 21.24 94.3475 21.24ZM98.8222 25.896C98.4382 25.736 98.2142 25.552 98.1502 25.344C98.0862 25.136 98.1422 24.848 98.3182 24.48L104.678 10.2C104.854 9.832 105.038 9.608 105.23 9.528C105.438 9.432 105.726 9.464 106.094 9.624C106.478 9.8 106.694 9.992 106.742 10.2C106.806 10.408 106.758 10.688 106.598 11.04L100.19 25.392C100.03 25.76 99.8542 25.976 99.6622 26.04C99.4702 26.104 99.1902 26.056 98.8222 25.896ZM101.198 19.704L95.7022 11.232C95.4942 10.912 95.4142 10.648 95.4622 10.44C95.5102 10.216 95.6942 10 96.0142 9.792C96.3662 9.568 96.6462 9.488 96.8542 9.552C97.0782 9.6 97.3022 9.784 97.5262 10.104L102.182 17.424L101.198 19.704Z" fill="black"/>
<path opacity="0.3" d="M16.25 7H5.41667C4.22005 7 3.25 8.04467 3.25 9.33333V23.3333C3.25 24.622 4.22005 25.6667 5.41667 25.6667H16.25C17.4466 25.6667 18.4167 24.622 18.4167 23.3333V9.33333C18.4167 8.04467 17.4466 7 16.25 7Z" fill="#3B82F6"/>
<path opacity="0.8" d="M17.3333 4.66667H6.5C5.30338 4.66667 4.33333 5.71134 4.33333 7.00001V21C4.33333 22.2887 5.30338 23.3333 6.5 23.3333H17.3333C18.5299 23.3333 19.5 22.2887 19.5 21V7.00001C19.5 5.71134 18.5299 4.66667 17.3333 4.66667Z" fill="#3B82F6"/>
<path opacity="0.9" d="M18.4167 2.33333H7.58333C6.38672 2.33333 5.41667 3.378 5.41667 4.66666V18.6667C5.41667 19.9553 6.38672 21 7.58333 21H18.4167C19.6133 21 20.5833 19.9553 20.5833 18.6667V4.66666C20.5833 3.378 19.6133 2.33333 18.4167 2.33333Z" fill="#2563EB"/>
<path d="M17.3333 4.66667H8.66667C8.06836 4.66667 7.58333 5.18901 7.58333 5.83334V7.00001C7.58333 7.64434 8.06836 8.16667 8.66667 8.16667H17.3333C17.9316 8.16667 18.4167 7.64434 18.4167 7.00001V5.83334C18.4167 5.18901 17.9316 4.66667 17.3333 4.66667Z" fill="white"/>
<path d="M7.58333 10.5H18.4167" stroke="white" stroke-opacity="0.6" stroke-width="0.5"/>
<path d="M7.58333 12.8333H16.25" stroke="white" stroke-opacity="0.6" stroke-width="0.5"/>
<path d="M7.58333 15.1667H17.3333" stroke="white" stroke-opacity="0.6" stroke-width="0.5"/>
</svg>
