<svg width="107" height="29" viewBox="0 0 107 29" fill="none" xmlns="http://www.w3.org/2000/svg">
<path d="M32.504 23.48C31.896 23.48 31.32 23.408 30.776 23.264C30.248 23.12 29.76 22.928 29.312 22.688C28.88 22.432 28.496 22.152 28.16 21.848C27.824 21.544 27.56 21.24 27.368 20.936C27.192 20.68 27.08 20.472 27.032 20.312C26.984 20.136 26.992 19.968 27.056 19.808C27.136 19.648 27.288 19.472 27.512 19.28C27.768 19.088 27.992 19 28.184 19.016C28.376 19.016 28.552 19.088 28.712 19.232C28.888 19.376 29.064 19.568 29.24 19.808C29.64 20.352 30.128 20.752 30.704 21.008C31.28 21.248 31.848 21.368 32.408 21.368C33.128 21.368 33.768 21.272 34.328 21.08C34.888 20.888 35.328 20.6 35.648 20.216C35.984 19.816 36.152 19.304 36.152 18.68C36.152 18.168 36.024 17.736 35.768 17.384C35.512 17.032 35.168 16.736 34.736 16.496C34.304 16.24 33.824 16.024 33.296 15.848C32.768 15.656 32.232 15.472 31.688 15.296C31.256 15.152 30.832 14.992 30.416 14.816C30 14.624 29.608 14.416 29.24 14.192C28.872 13.952 28.544 13.672 28.256 13.352C27.984 13.032 27.768 12.656 27.608 12.224C27.464 11.792 27.392 11.288 27.392 10.712C27.392 9.832 27.6 9.056 28.016 8.384C28.448 7.712 29.048 7.192 29.816 6.824C30.584 6.44 31.472 6.248 32.48 6.248C33.072 6.248 33.616 6.304 34.112 6.416C34.608 6.528 35.048 6.68 35.432 6.872C35.816 7.048 36.144 7.24 36.416 7.448C36.688 7.64 36.896 7.824 37.04 8C37.328 8.304 37.488 8.56 37.52 8.768C37.552 8.976 37.432 9.232 37.16 9.536C36.904 9.824 36.656 9.976 36.416 9.992C36.176 10.008 35.912 9.896 35.624 9.656C35.32 9.304 35 9.032 34.664 8.84C34.344 8.648 34 8.52 33.632 8.456C33.28 8.376 32.888 8.336 32.456 8.336C32.04 8.336 31.648 8.392 31.28 8.504C30.928 8.6 30.616 8.752 30.344 8.96C30.088 9.168 29.888 9.424 29.744 9.728C29.6 10.016 29.528 10.352 29.528 10.736C29.528 11.168 29.64 11.536 29.864 11.84C30.104 12.144 30.416 12.408 30.8 12.632C31.184 12.84 31.616 13.032 32.096 13.208C32.576 13.368 33.08 13.528 33.608 13.688C34.184 13.864 34.752 14.08 35.312 14.336C35.872 14.576 36.376 14.88 36.824 15.248C37.272 15.6 37.632 16.048 37.904 16.592C38.176 17.136 38.312 17.808 38.312 18.608C38.312 19.408 38.152 20.112 37.832 20.72C37.528 21.328 37.104 21.84 36.56 22.256C36.016 22.656 35.392 22.96 34.688 23.168C34 23.376 33.272 23.48 32.504 23.48ZM45.8043 23.24C45.0523 23.24 44.4123 23.168 43.8843 23.024C43.3723 22.88 42.9483 22.656 42.6123 22.352C42.2763 22.048 42.0363 21.656 41.8923 21.176C41.7483 20.68 41.6763 20.072 41.6763 19.352V8.744C41.6763 8.52 41.7003 8.328 41.7483 8.168C41.7963 8.008 41.8923 7.888 42.0363 7.808C42.1803 7.712 42.4043 7.664 42.7083 7.664C43.0123 7.664 43.2443 7.712 43.4043 7.808C43.5643 7.888 43.6683 8.008 43.7163 8.168C43.7643 8.312 43.7883 8.496 43.7883 8.72V19.352C43.7883 19.768 43.8203 20.104 43.8843 20.36C43.9643 20.6 44.0763 20.784 44.2203 20.912C44.3803 21.04 44.5883 21.12 44.8443 21.152C45.1003 21.184 45.4123 21.2 45.7803 21.2C46.0363 21.2 46.2443 21.224 46.4043 21.272C46.5643 21.32 46.6843 21.416 46.7643 21.56C46.8443 21.704 46.8843 21.92 46.8843 22.208C46.8843 22.512 46.8363 22.744 46.7403 22.904C46.6603 23.048 46.5323 23.136 46.3563 23.168C46.1963 23.216 46.0123 23.24 45.8043 23.24ZM40.4283 11.888L42.7323 11.912L46.0683 11.864C46.2923 11.864 46.4843 11.888 46.6443 11.936C46.8043 11.968 46.9243 12.064 47.0043 12.224C47.1003 12.368 47.1483 12.592 47.1483 12.896C47.1483 13.2 47.1083 13.432 47.0283 13.592C46.9483 13.736 46.8283 13.832 46.6683 13.88C46.5083 13.928 46.3163 13.952 46.0923 13.952L42.8043 13.904L40.3803 13.928C40.0443 13.928 39.8123 13.848 39.6843 13.688C39.5723 13.528 39.5163 13.264 39.5163 12.896C39.5163 12.544 39.5883 12.288 39.7323 12.128C39.8763 11.968 40.1083 11.888 40.4283 11.888ZM59.2438 23.216C58.8918 23.216 58.6358 23.144 58.4758 23C58.3318 22.856 58.2438 22.632 58.2118 22.328L58.3078 21.128C58.1478 21.384 57.8998 21.68 57.5638 22.016C57.2278 22.336 56.7878 22.624 56.2438 22.88C55.6998 23.12 55.0358 23.24 54.2518 23.24C53.4838 23.24 52.7638 23.088 52.0918 22.784C51.4358 22.48 50.8518 22.056 50.3398 21.512C49.8438 20.968 49.4518 20.344 49.1638 19.64C48.8918 18.936 48.7558 18.184 48.7558 17.384C48.7558 16.6 48.8918 15.864 49.1638 15.176C49.4518 14.472 49.8518 13.856 50.3638 13.328C50.8758 12.8 51.4598 12.384 52.1158 12.08C52.7878 11.776 53.4998 11.624 54.2518 11.624C54.9558 11.624 55.5558 11.72 56.0518 11.912C56.5478 12.088 56.9718 12.328 57.3238 12.632C57.6918 12.92 58.0118 13.248 58.2838 13.616L58.2358 12.608C58.2198 12.256 58.2918 12.008 58.4518 11.864C58.6278 11.704 58.8998 11.624 59.2678 11.624C59.5718 11.624 59.7878 11.672 59.9158 11.768C60.0598 11.864 60.1558 12 60.2038 12.176C60.2518 12.352 60.2758 12.568 60.2758 12.824V22.088C60.2758 22.312 60.2518 22.512 60.2038 22.688C60.1558 22.864 60.0598 22.992 59.9158 23.072C59.7718 23.168 59.5478 23.216 59.2438 23.216ZM54.6118 21.224C55.2518 21.224 55.8358 21.056 56.3638 20.72C56.9078 20.384 57.3318 19.936 57.6358 19.376C57.9558 18.8 58.1158 18.144 58.1158 17.408C58.1158 16.656 57.9478 16 57.6118 15.44C57.2918 14.864 56.8598 14.416 56.3158 14.096C55.7878 13.76 55.2038 13.592 54.5638 13.592C53.8118 13.592 53.1558 13.768 52.5958 14.12C52.0518 14.456 51.6198 14.912 51.2998 15.488C50.9798 16.064 50.8198 16.72 50.8198 17.456C50.8198 18.176 50.9798 18.824 51.2998 19.4C51.6198 19.96 52.0598 20.408 52.6198 20.744C53.1958 21.064 53.8598 21.224 54.6118 21.224ZM69.017 23.144C68.233 23.144 67.521 23 66.881 22.712C66.241 22.424 65.697 22.024 65.249 21.512C64.801 20.984 64.449 20.368 64.193 19.664C63.953 18.96 63.841 18.184 63.857 17.336C63.857 16.504 63.977 15.736 64.217 15.032C64.457 14.328 64.801 13.72 65.249 13.208C65.713 12.68 66.257 12.28 66.881 12.008C67.521 11.72 68.233 11.576 69.017 11.576C69.753 11.576 70.441 11.72 71.081 12.008C71.737 12.296 72.305 12.704 72.785 13.232C73.281 13.744 73.665 14.36 73.937 15.08C74.225 15.8 74.369 16.576 74.369 17.408C74.369 18.24 74.225 19.008 73.937 19.712C73.665 20.416 73.281 21.024 72.785 21.536C72.305 22.048 71.737 22.448 71.081 22.736C70.441 23.008 69.753 23.144 69.017 23.144ZM64.025 27.968C63.721 27.968 63.489 27.92 63.329 27.824C63.185 27.744 63.081 27.624 63.017 27.464C62.969 27.304 62.945 27.112 62.945 26.888V12.704C62.945 12.48 62.969 12.288 63.017 12.128C63.065 11.968 63.161 11.848 63.305 11.768C63.465 11.672 63.697 11.624 64.001 11.624C64.353 11.624 64.609 11.68 64.769 11.792C64.945 11.904 65.049 12.104 65.081 12.392V26.864C65.097 27.088 65.081 27.28 65.033 27.44C64.985 27.616 64.881 27.744 64.721 27.824C64.577 27.92 64.345 27.968 64.025 27.968ZM68.705 21.176C69.377 21.176 69.985 21.016 70.529 20.696C71.073 20.36 71.497 19.904 71.801 19.328C72.121 18.752 72.281 18.096 72.281 17.36C72.281 16.608 72.121 15.952 71.801 15.392C71.497 14.832 71.073 14.4 70.529 14.096C70.001 13.776 69.393 13.616 68.705 13.616C68.033 13.616 67.425 13.776 66.881 14.096C66.353 14.416 65.929 14.856 65.609 15.416C65.305 15.976 65.153 16.624 65.153 17.36C65.153 18.096 65.305 18.752 65.609 19.328C65.929 19.904 66.353 20.36 66.881 20.696C67.425 21.016 68.033 21.176 68.705 21.176ZM82.7983 23.144C82.0143 23.144 81.3023 23 80.6623 22.712C80.0223 22.424 79.4783 22.024 79.0303 21.512C78.5823 20.984 78.2303 20.368 77.9743 19.664C77.7343 18.96 77.6223 18.184 77.6383 17.336C77.6383 16.504 77.7583 15.736 77.9983 15.032C78.2383 14.328 78.5823 13.72 79.0303 13.208C79.4943 12.68 80.0383 12.28 80.6623 12.008C81.3023 11.72 82.0143 11.576 82.7983 11.576C83.5343 11.576 84.2223 11.72 84.8623 12.008C85.5183 12.296 86.0863 12.704 86.5663 13.232C87.0623 13.744 87.4463 14.36 87.7183 15.08C88.0063 15.8 88.1503 16.576 88.1503 17.408C88.1503 18.24 88.0063 19.008 87.7183 19.712C87.4463 20.416 87.0623 21.024 86.5663 21.536C86.0863 22.048 85.5183 22.448 84.8623 22.736C84.2223 23.008 83.5343 23.144 82.7983 23.144ZM77.8063 27.968C77.5023 27.968 77.2703 27.92 77.1103 27.824C76.9663 27.744 76.8623 27.624 76.7983 27.464C76.7503 27.304 76.7263 27.112 76.7263 26.888V12.704C76.7263 12.48 76.7503 12.288 76.7983 12.128C76.8463 11.968 76.9423 11.848 77.0863 11.768C77.2463 11.672 77.4783 11.624 77.7823 11.624C78.1343 11.624 78.3903 11.68 78.5503 11.792C78.7263 11.904 78.8303 12.104 78.8623 12.392V26.864C78.8783 27.088 78.8623 27.28 78.8143 27.44C78.7663 27.616 78.6623 27.744 78.5023 27.824C78.3583 27.92 78.1263 27.968 77.8063 27.968ZM82.4863 21.176C83.1583 21.176 83.7663 21.016 84.3103 20.696C84.8543 20.36 85.2783 19.904 85.5823 19.328C85.9023 18.752 86.0623 18.096 86.0623 17.36C86.0623 16.608 85.9023 15.952 85.5823 15.392C85.2783 14.832 84.8543 14.4 84.3103 14.096C83.7823 13.776 83.1743 13.616 82.4863 13.616C81.8143 13.616 81.2063 13.776 80.6623 14.096C80.1343 14.416 79.7103 14.856 79.3903 15.416C79.0863 15.976 78.9342 16.624 78.9342 17.36C78.9342 18.096 79.0863 18.752 79.3903 19.328C79.7103 19.904 80.1343 20.36 80.6623 20.696C81.2063 21.016 81.8143 21.176 82.4863 21.176ZM94.3475 23.24C93.8355 23.24 93.3715 23.192 92.9555 23.096C92.5555 23.016 92.2035 22.88 91.8995 22.688C91.5955 22.496 91.3395 22.248 91.1315 21.944C90.9395 21.64 90.7955 21.272 90.6995 20.84C90.6195 20.408 90.5795 19.904 90.5795 19.328V7.328C90.5795 7.088 90.5955 6.888 90.6275 6.728C90.6755 6.568 90.7795 6.448 90.9395 6.368C91.0995 6.272 91.3235 6.224 91.6115 6.224C91.9315 6.224 92.1635 6.264 92.3075 6.344C92.4675 6.424 92.5715 6.544 92.6195 6.704C92.6675 6.864 92.6915 7.056 92.6915 7.28V19.304C92.6915 19.624 92.7235 19.904 92.7875 20.144C92.8515 20.368 92.9475 20.56 93.0755 20.72C93.2195 20.88 93.3955 20.992 93.6035 21.056C93.8115 21.12 94.0595 21.152 94.3475 21.152C94.5395 21.152 94.6995 21.176 94.8275 21.224C94.9715 21.272 95.0835 21.368 95.1635 21.512C95.2435 21.656 95.2835 21.88 95.2835 22.184C95.2835 22.504 95.2435 22.744 95.1635 22.904C95.0835 23.048 94.9715 23.136 94.8275 23.168C94.6995 23.216 94.5395 23.24 94.3475 23.24ZM98.8222 27.896C98.4382 27.736 98.2142 27.552 98.1502 27.344C98.0862 27.136 98.1422 26.848 98.3182 26.48L104.678 12.2C104.854 11.832 105.038 11.608 105.23 11.528C105.438 11.432 105.726 11.464 106.094 11.624C106.478 11.8 106.694 11.992 106.742 12.2C106.806 12.408 106.758 12.688 106.598 13.04L100.19 27.392C100.03 27.76 99.8542 27.976 99.6622 28.04C99.4702 28.104 99.1902 28.056 98.8222 27.896ZM101.198 21.704L95.7022 13.232C95.4942 12.912 95.4142 12.648 95.4622 12.44C95.5102 12.216 95.6942 12 96.0142 11.792C96.3662 11.568 96.6462 11.488 96.8542 11.552C97.0782 11.6 97.3022 11.784 97.5262 12.104L102.182 19.424L101.198 21.704Z" fill="white"/>
<path opacity="0.3" d="M16.25 7H5.41667C4.22005 7 3.25 8.04467 3.25 9.33333V23.3333C3.25 24.622 4.22005 25.6667 5.41667 25.6667H16.25C17.4466 25.6667 18.4167 24.622 18.4167 23.3333V9.33333C18.4167 8.04467 17.4466 7 16.25 7Z" fill="#3B82F6"/>
<path opacity="0.8" d="M17.3333 4.66667H6.5C5.30338 4.66667 4.33333 5.71134 4.33333 7.00001V21C4.33333 22.2887 5.30338 23.3333 6.5 23.3333H17.3333C18.5299 23.3333 19.5 22.2887 19.5 21V7.00001C19.5 5.71134 18.5299 4.66667 17.3333 4.66667Z" fill="#3B82F6"/>
<path opacity="0.9" d="M18.4167 2.33333H7.58333C6.38672 2.33333 5.41667 3.378 5.41667 4.66666V18.6667C5.41667 19.9553 6.38672 21 7.58333 21H18.4167C19.6133 21 20.5833 19.9553 20.5833 18.6667V4.66666C20.5833 3.378 19.6133 2.33333 18.4167 2.33333Z" fill="#2563EB"/>
<path d="M17.3333 4.66667H8.66667C8.06836 4.66667 7.58333 5.18901 7.58333 5.83334V7.00001C7.58333 7.64434 8.06836 8.16667 8.66667 8.16667H17.3333C17.9316 8.16667 18.4167 7.64434 18.4167 7.00001V5.83334C18.4167 5.18901 17.9316 4.66667 17.3333 4.66667Z" fill="white"/>
<path d="M7.58333 10.5H18.4167" stroke="white" stroke-opacity="0.6" stroke-width="0.5"/>
<path d="M7.58333 12.8333H16.25" stroke="white" stroke-opacity="0.6" stroke-width="0.5"/>
<path d="M7.58333 15.1667H17.3333" stroke="white" stroke-opacity="0.6" stroke-width="0.5"/>
</svg>
